<svg width="196" height="105" viewBox="0 0 196 105" fill="none" xmlns="http://www.w3.org/2000/svg">
<path d="M11.6 104L0.56 0.919997H20.72L26.48 65.96L32.24 0.919997H51.44L56.96 65.96L62.48 0.919997H82.88L71.6 104H46.88L41.72 54.32L36.8 104H11.6ZM124.452 104L113.412 0.919997H133.572L139.332 65.96L145.092 0.919997H164.292L169.812 65.96L175.332 0.919997H195.732L184.452 104H159.732L154.572 54.32L149.652 104H124.452Z" fill="#3D2645"/>
<path d="M101.17 104.72C97.0297 104.72 94.1797 103.85 92.6197 102.11C91.0597 100.37 90.2797 97.58 90.2797 93.74V52.61H85.8697V40.64H90.2797V26.69H105.58V40.64H110.08V52.61H105.58V89.6C105.58 90.74 105.67 91.58 105.85 92.12C106.03 92.66 106.51 92.93 107.29 92.93C107.89 92.93 108.46 92.9 109 92.84C109.54 92.78 109.9 92.75 110.08 92.75V103.55C109.18 103.79 107.86 104.03 106.12 104.27C104.44 104.57 102.79 104.72 101.17 104.72Z" fill="#DA4167"/>
</svg>
